Coordinates
version=1
nRows=14
nColumns=36
inDegrees=yes

Units are S.I. units (second, meters, Newtons, ...)
If the header above contains a line with 'inDegrees', this indicates whether rotational values are in degrees (yes) or radians (no).

endheader
time	pelvis_tilt	pelvis_list	pelvis_rotation	pelvis_tx	pelvis_ty	pelvis_tz	hip_flexion_r	hip_adduction_r	hip_rotation_r	knee_angle_r	knee_angle_r_beta	ankle_angle_r	subtalar_angle_r	mtp_angle_r	hip_flexion_l	hip_adduction_l	hip_rotation_l	knee_angle_l	knee_angle_l_beta	ankle_angle_l	subtalar_angle_l	mtp_angle_l	lumbar_extension	lumbar_bending	lumbar_rotation	arm_flex_r	arm_add_r	arm_rot_r	elbow_flex_r	pro_sup_r	arm_flex_l	arm_add_l	arm_rot_l	elbow_flex_l	pro_sup_l
      1.23333330	     -9.04598932	      3.07937281	    -10.83677471	     -0.03579209	      1.27882379	     -0.36182817	     10.66437321	     -0.90337959	     -0.01989406	      5.79812368	      0.10119635	      9.04890703	     -7.04842818	     -7.49996636	      8.61099201	      1.10328791	     -1.84820085	      4.44822852	      0.07763623	     10.59859709	      2.02086982	     -7.49996636	     -2.94118196	     -2.52258006	     -6.47432131	     -2.25241743	    -12.19153877	     13.04744988	     26.13087649	     95.39126638	    -14.91957840	    -12.72991429	    -13.27943123	     40.30387258	     99.13434970
      1.25000000	     -9.18128801	      3.10363939	    -10.77975635	     -0.04379671	      1.28478702	     -0.36713019	     10.87874110	     -0.88823764	      0.02534567	      5.73220428	      0.10004584	      8.97771237	     -6.92350445	     -7.49996643	      8.80496652	      1.06290664	     -1.86825624	      4.45633279	      0.07777768	     10.42939540	      2.09227732	     -7.49996643	     -3.35153826	     -2.53624064	     -6.42910640	     -2.85106712	    -12.56123285	     13.06676049	     25.68996159	     95.47334345	    -15.43485291	    -12.91278205	    -13.42240908	     39.97267005	     99.17965750
      1.26666670	     -9.62424233	      3.14465041	    -10.78644308	     -0.04385685	      1.28061936	     -0.36772624	     11.44472120	     -0.83241405	     -0.20099408	      5.74813510	      0.10032388	      9.14155777	     -6.32005570	     -7.49997331	      9.43072981	      0.98384024	     -1.97745814	      4.74436841	      0.08280485	     10.25690272	      2.07818238	     -7.49997331	     -3.01999325	     -2.52941308	     -7.12440649	     -1.48215093	    -12.76693147	     16.36976561	     21.50208659	    101.64562886	    -16.20470756	    -12.30257568	    -16.55693150	     38.63170205	    104.05853839
      1.28333330	     -9.91730078	      3.17042111	    -10.75279257	     -0.04328172	      1.27978755	     -0.36727012	     11.86564884	     -0.79716246	     -0.26799703	      5.74297687	      0.10023386	      9.11744668	     -6.19965236	     -7.49997881	      9.96181105	      0.91511828	     -2.17365947	      5.01751550	      0.08757217	     10.26901166	      2.33089726	     -7.49997881	     -3.37041008	     -2.53459643	     -6.91330238	     -1.67216192	    -12.97690139	     16.93153317	     19.98221868	    100.79795563	    -16.91185704	    -12.51044057	    -16.36953430	     38.06276269	    103.57343299
      1.30000000	    -10.11924682	      3.16547498	    -10.72965193	     -0.04325613	      1.27566832	     -0.36780630	     12.21598103	     -0.74817518	     -0.35856185	      5.83048632	      0.10176118	      9.22270077	     -6.05511126	     -7.49998360	     10.41680739	      0.83964566	     -2.18756665	      5.35859349	      0.09352510	     10.31273572	      2.34964279	     -7.49998360	     -3.94508684	     -2.56890729	     -7.12348748	     -1.95241842	    -13.53149870	     18.76398050	     18.20318558	    103.10605392	    -18.32719685	    -12.61778426	    -17.78095227	     37.86247951	    105.78652719
      1.31666670	    -10.34204866	      3.13961869	    -10.59812749	     -0.04308098	      1.27850591	     -0.36745462	     12.49570789	     -0.69691190	     -0.54458448	      5.91841639	      0.10329585	      9.30069669	     -5.86364437	     -7.49998756	     10.86227997	      0.74984129	     -2.20054418	      5.55696991	      0.09698742	     10.20013905	      2.35210346	     -7.49998756	     -4.41954703	     -2.55281178	     -6.90377359	     -2.89997999	    -14.17169875	     20.84080993	     16.17624717	    103.04940469	    -19.50440697	    -13.46441410	    -16.68194218	     36.57333179	    105.74503552
      1.33333330	    -10.92599424	      3.17244329	    -10.49305814	     -0.05312889	      1.26752363	     -0.36737027	     13.42523066	     -0.61240340	     -0.59660997	      6.28558775	      0.10970420	      9.33532696	     -5.98192113	     -7.49998986	     11.99206802	      0.62864983	     -2.32881961	      6.18014835	      0.10786394	     10.58934335	      2.68117688	     -7.49998986	     -4.84265832	     -2.56423276	     -6.67416758	     -4.15655124	    -14.95394535	     23.38459473	     14.73467618	    101.61696843	    -20.81442939	    -14.64719470	    -14.73862102	     35.70653677	    104.44416018
      1.35000000	    -11.53615194	      3.15334556	    -10.34450786	     -0.05202957	      1.26034781	     -0.36694211	     14.38995616	     -0.50556182	     -0.82026223	      6.81743232	      0.11898664	      9.44771337	     -5.98976778	     -7.49999069	     13.17158710	      0.48255716	     -2.15912045	      6.81313128	      0.11891157	     10.81852979	      2.48536282	     -7.49999069	     -5.41086324	     -2.57518731	     -6.66022402	     -6.43702988	    -15.99258869	     26.13243081	     14.56158762	    101.76570453	    -22.76570738	    -16.29238036	    -11.99541782	     35.55293816	    104.77793151
      1.36666670	    -12.14022431	      3.19226671	    -10.12786690	     -0.05146618	      1.25978773	     -0.36761117	     15.29522874	     -0.51249025	     -1.11697970	      7.27124211	      0.12690712	      9.70555579	     -5.77180947	     -7.49999300	     14.31529559	      0.40837611	     -2.21253264	      7.39875110	      0.12913257	     10.88801653	      2.42023793	     -7.49999300	     -6.15899699	     -2.65917779	     -6.29044887	     -9.56168528	    -17.71016123	     31.19930340	     15.66393924	    101.25614709	    -25.14597061	    -18.35420742	     -7.66089042	     36.06378223	    105.50511881
      1.38333330	    -12.82149005	      3.23955870	     -9.96229743	     -0.05015736	      1.25611732	     -0.36711562	     16.27719100	     -0.49220773	     -1.34091239	      7.75771889	      0.13539774	      9.92063779	     -5.68784700	     -7.49999427	     15.44617148	      0.33131821	     -2.28011837	      7.84274135	      0.13688166	     11.21473652	      2.80833372	     -7.49999427	     -6.94824308	     -2.83363960	     -5.66198132	    -13.13987997	    -19.69247500	     35.43404771	     16.89598677	    100.17539047	    -27.93525868	    -20.76840391	     -2.53242194	     35.76990665	    106.23996799
      1.40000000	    -13.22252512	      3.27911360	     -9.78886220	     -0.04988460	      1.25642774	     -0.36791191	     16.93720602	     -0.53638582	     -1.54429133	      8.13607361	      0.14200127	      9.99569529	     -5.78354881	     -7.49999520	     16.17402056	      0.34420995	     -2.08812281	      8.10425479	      0.14144593	     11.45140270	      2.92979710	     -7.49999520	     -8.37549403	     -3.09629000	     -5.13124340	    -17.24541089	    -21.83439477	     37.62935483	     19.04385602	     97.39824532	    -31.76136149	    -23.10670278	      0.58042664	     37.23380816	    104.15116049
      1.41666670	    -14.44481532	      3.44906405	     -9.75296425	     -0.04826231	      1.25225203	     -0.36740427	     18.88833586	     -0.57547583	     -1.83818520	      9.27044151	      0.16179973	     10.46192358	     -5.73114425	     -7.49999763	     18.20897190	      0.30324048	     -1.88578386	      9.13453293	      0.15942768	     12.05316452	      3.17047977	     -7.49999763	     -8.63782988	     -3.07325812	     -3.48103316	    -21.48349673	    -24.67696507	     49.03590558	     21.12358671	     84.54902835	    -33.59882816	    -27.12763223	     11.47235129	     36.87106817	    101.01291193
      1.43333330	    -15.31627316	      3.54121949	     -9.52965624	     -0.04755175	      1.24822737	     -0.36824378	     20.33918882	     -0.66442836	     -2.13859796	     10.38395292	      0.18123417	     11.00143469	     -5.66957616	     -7.49999798	     19.78090760	      0.22643538	     -2.00196815	     10.06079485	      0.17559400	     12.55519142	      3.82591818	     -7.49999798	     -9.81313455	     -3.14653811	     -2.99818104	    -25.24778869	    -26.56354575	     51.56909856	     21.61063610	     82.66111904	    -36.73272331	    -28.82185940	     14.04381614	     36.67102236	     99.72279557
      1.45000000	    -16.61183686	      3.68853415	     -9.12203657	     -0.05659405	      1.24429826	     -0.36750730	     22.53042728	     -0.83166912	     -2.33663800	     11.85199992	      0.20685642	     11.58586694	     -5.84358938	     -7.49999802	     21.98893582	      0.16534521	     -1.79582498	     11.41537181	      0.19923582	     12.97800515	      3.75792157	     -7.49999802	    -10.62179083	     -3.01481531	     -2.76919115	    -29.51188038	    -27.63990243	     52.53702008	     21.01618270	     82.21961785	    -39.71895560	    -30.04006026	     14.99835391	     35.81309592	     99.75644430
